<?xml version="1.0" encoding="utf-8"?>
<!-- Generator: Adobe Illustrator 18.1.1, SVG Export Plug-In . SVG Version: 6.00 Build 0)  -->
<svg version="1.1" id="Layer_1" xmlns="http://www.w3.org/2000/svg" xmlns:xlink="http://www.w3.org/1999/xlink" x="0px" y="0px"
	 width="100px" height="100px" viewBox="0 0 100 100" enable-background="new 0 0 100 100" xml:space="preserve">
<path fill="#FFFF99" stroke="#CCCCFF" stroke-miterlimit="10" d="M80.6,92.4H19.4c-6.6,0-12-5.4-12-12V19.6c0-6.6,5.4-12,12-12h61.2
	c6.6,0,12,5.4,12,12v60.9C92.6,87,87.2,92.4,80.6,92.4z"/>
<g>
	<g>
		<path fill="#99FF99" d="M21.1,29.3c-1.9,2.5-2.2,5-1.8,8c0.6,5,1.6,9.4,0.8,14.5c-0.9,5.8-6.5,13.6-4.6,19.5
			c0.9,3,3.9,3.4,5.4,0.6C23,68,23.5,51,29.2,52c1.7,0.3,1.8,2.1,4.2,0.9c1.4-0.7,2-2.1,2.4-3.6c0.5-2.1,0.1-4.1-0.7-6.1
			c-1.1-2.7-2.5-4.5-2.8-7.5c-0.1-1.5-0.1-3-0.1-4.5c0-3-0.1-11.6-4.9-11.6c-1.4,0-2.5,1.2-3,2.4c-0.3,0.8-0.4,1.8-0.4,2.7
			c0,0.9,0.1,4,0.3,4.6c-0.8-1.8-3.4-0.2-2.6,1.5c0.8,1.8,2.8,2.5,4.4,1.3c1.2-0.8,1.5-2.3,1.5-3.7c0-1.2-0.8-2.6-0.7-3.7
			c0.5-3.3,1.8,1,2,2.2c0.8,4.5-0.4,9.2,1.3,13.6c0.4,1,1,1.9,1.5,2.8c0.7,1.5,1.3,5.5-0.9,5.6c-1.2,0.1-1.2-1.4-3.1-1
			c-3.1,0.6-4.7,4.9-5.5,7.5c-0.9,2.6-1.4,5.4-2,8.1c-0.4,1.5-0.7,3-1.2,4.4c-0.9,2.8-0.5,0.7-0.2-1c1-5.7,3.9-10.7,4.6-16.5
			c0.3-2.6,0.3-5.2,0-7.8c-0.5-4-2.3-8.3,0.5-11.9C24.9,29.3,22.3,27.8,21.1,29.3L21.1,29.3z"/>
	</g>
</g>
<g>
	<g>
		<path fill="#99FF99" d="M63,54.5c-1.8,4-5.2,6.4-9.1,8.1c-5.4,2.3-9.7,1.2-13.7-2.9c-1.8-1.8-4.2-6.9-7.3-3.6
			c-3.4,3.7,1.9,10,3.7,13c2.6,4.2,2.4,7.3,1.8,11.9c-0.2,1.9-1.3,4.9-0.3,6.7c1.2,2.2,5.1,2.7,6.8,0.9c1.6-1.8,1.3-5.8,1.3-7.8
			c0.1-1,0.1-2,0.1-2.9c-0.7-2.5,0.1-4,2.5-4.6c2.5-1.5,3.3-1.1,5.9-1.7c5-1,10.5-3.8,12.7-8.7c1.2-2.8,2.4-9.1-0.3-11.4
			c-0.5-0.5-1.2-0.6-1.8-0.2c-1,0.5-1,0.6-1.8,1.5c-1.2,1.5,0.9,3.6,2.1,2.1c0.4-0.3,0.8-0.7,1.2-1c-0.6-0.1-1.2-0.2-1.8-0.2
			c1.8,1.5,0.1,7.6-0.8,9.1c-1.9,3.3-6.5,5.1-10.1,5.9c-3.2,0.6-7-0.3-9.3,2.7c-1,1.4-1.3,3.1-1.5,4.8c0,0.2-0.3,11.7-2.6,9.6
			c-0.6-0.5,0.8-5.9,0.9-6.9c0.2-2.2,0.4-4.4-0.2-6.5c-0.6-2-1.8-3.7-2.9-5.5c-0.4-0.7-4.4-7.6-2.5-7.1c1.1,0.3,3.1,3.5,4.1,4.3
			c1.5,1.2,3.2,2.1,5,2.6c7.5,2.1,17.3-3.7,20.3-10.5C66.4,54.2,63.8,52.7,63,54.5L63,54.5z"/>
	</g>
</g>
<g>
	<g>
		<path fill="#99FF99" d="M61.8,14.5c-1.9,2.3-16.4,21.8-9.7,23.1c3.6,0.7,6.5-7.2,7.6-9.3c1.5-2.9,6.5-9.9,5.2-13.2
			c-0.3-0.8-1-1.2-1.8-1c-0.1,0-0.1,0-0.2,0c-1.9,0.3-1.1,3.2,0.8,2.9c0.1,0,0.1,0,0.2,0c-0.6-0.3-1.2-0.7-1.8-1
			c0.5,1.3-1.7,4.7-2.3,5.8c-0.6,1.2-1.2,2.3-1.8,3.5c-0.7,1.4-1.4,2.8-2.1,4.1c-0.9,1.6-2.7,3.5-3.3,5.1c1.3,0.3,1.9-0.4,1.8-2.2
			c0.2-0.4,0.4-0.9,0.6-1.3c0.8-1.7,1.7-3.4,2.7-5.1c1.9-3.2,4-6.3,6.3-9.2C65.1,15.1,63,13,61.8,14.5L61.8,14.5z"/>
	</g>
</g>
<g>
	<g>
		<path fill="#99FF99" d="M65.3,31.9c-2.4,3.8-5.6,6.7-9.8,8.4c-2.3,1-4.2,1.5-6.7,1.1c-1.2-0.2-2.3-0.9-3.5-0.7
			c-2.7,0.6-3,3.8-1.2,5.6c3.2,3.1,10.8,2.6,14.1,0.3c5-3.5,9.5-7.7,11.6-13.6c0.4-1.1-0.8-2.1-1.8-1.8c-0.3,0.1-0.6,0.1-0.9,0.2
			c-1.9,0.4-1.1,3.3,0.8,2.9c0.3-0.1,0.6-0.1,0.9-0.2c-0.6-0.6-1.2-1.2-1.8-1.8c-1.7,4.9-4.8,7.3-8.8,10.3c-1.9,1.4-2.8,2.5-5.2,2.8
			c-1.3,0.2-4.6,0.2-5.7-0.6c-1.2-0.9,2.5,0,3.1,0c7.2,0.1,14-5.6,17.6-11.3C68.9,31.7,66.3,30.2,65.3,31.9L65.3,31.9z"/>
	</g>
</g>
<g>
	<g>
		<path fill="#99FF99" d="M46.1,45.1c1.9,0,1.9-3,0-3C44.1,42.1,44.1,45.1,46.1,45.1L46.1,45.1z"/>
	</g>
</g>
<g>
	<g>
		<path fill="#99FF99" d="M44.8,44.4c1.1,2,3.7,3,6,2.9c1.2,0,2.7,0.1,3.8-0.4c0.4-0.2,2.2-2.2,1.4-2.1c1.9-0.1,1.9-3.1,0-3
			c-0.7,0-1.1,0.2-1.6,0.6c-0.3,0.2-0.5,0.5-0.6,0.8c-0.1,0.1-0.1,0.2-0.2,0.4c0,0.5-0.2,0.8-0.6,0.6c-0.5,0.2-2.2,0.2-2.8,0.1
			c-1-0.1-2.2-0.5-2.7-1.5C46.5,41.2,43.9,42.7,44.8,44.4L44.8,44.4z"/>
	</g>
</g>
<g>
	<g>
		<path fill="#99FF99" d="M76.4,25.7c1.5,6,2.6,12,3.1,18.2c0.5,5.9,1.3,12.5-1.1,18.1c0.9,0.1,1.8,0.2,2.7,0.4
			c-2.8-6.9-1.8-15.5-2-22.8c-0.1-3.8-0.2-7.6-0.3-11.3c0-1.5,0.4-3.5-0.9-4.6c-1.5-1.2-3.6,0.9-2.1,2.1c0.9,0.8,0.1,8.7,0.2,10
			c0.1,3.5,0.2,6.9,0.2,10.4c0.1,5.7-0.2,11.6,1.9,17c0.4,1,2.2,1.7,2.7,0.4c2.5-5.7,2.1-11.7,1.6-17.8c-0.5-7.1-1.7-14-3.4-20.9
			C78.9,23.1,76,23.8,76.4,25.7L76.4,25.7z"/>
	</g>
</g>
<g>
	<g>
		<path fill="#99FF99" d="M79.9,56.9c2.2-4.8,1.5-11.2,0.5-16.2c-0.4-1.9-3.3-1.1-2.9,0.8c0.8,4,1.6,10.1-0.2,13.9
			C76.5,57.1,79.1,58.7,79.9,56.9L79.9,56.9z"/>
	</g>
</g>
<rect x="22.5" y="12.6" fill="none" width="53.9" height="72.6"/>
<text transform="matrix(1 0 0 1 22.5488 81.1211)" fill="#CCCCFF" font-family="'Monaco'" font-size="87">d</text>
<g>
	<g>
		<path fill="#99FF99" d="M44.3,61c0.4,0.4,1,0.7,1.6,0.7c1.3,0,1.3-2,0-2c-0.3,0,0,0.1-0.2-0.1C44.8,58.6,43.4,60,44.3,61L44.3,61z
			"/>
	</g>
</g>
<g>
	<g>
		<path fill="#99FF99" d="M53.1,55c-0.4,0.3-0.9,0.6-1.4,0.7C50.5,56,51,58,52.2,57.6c0.7-0.2,1.3-0.5,1.9-0.9
			c0.4-0.3,0.7-0.9,0.4-1.4C54.2,55,53.5,54.7,53.1,55L53.1,55z"/>
	</g>
</g>
<g>
	<g>
		<path fill="#99FF99" d="M43.7,53.9c0.6,1.2,2,2,3.4,1.8c0.5-0.1,1-0.4,1-1c0-0.5-0.5-1.1-1-1c-0.7,0.1-1.3-0.2-1.7-0.8
			C44.8,51.8,43.1,52.8,43.7,53.9L43.7,53.9z"/>
	</g>
</g>
<g>
	<g>
		<path fill="#99FF99" d="M56.2,50.3c0.7,2.1,1.1,4.2,1,6.5c0,1.3,2,1.3,2,0c0.1-2.4-0.3-4.7-1.1-7C57.7,48.6,55.8,49.1,56.2,50.3
			L56.2,50.3z"/>
	</g>
</g>
<g>
	<g>
		<path fill="#99FF99" d="M40.7,49.9c-0.9,1.5-1.4,3.2-1.6,5c-0.1,1.3,1.9,1.3,2,0c0.1-1.4,0.6-2.8,1.3-4
			C43.1,49.8,41.4,48.8,40.7,49.9L40.7,49.9z"/>
	</g>
</g>
<g>
	<g>
		<path fill="#99FF99" d="M72.8,66.2c1.6,4.2,1.8,8.4,0.5,12.7c-0.4,1.2,1.6,1.8,1.9,0.5c1.4-4.6,1.2-9.3-0.5-13.8
			C74.3,64.5,72.3,65,72.8,66.2L72.8,66.2z"/>
	</g>
</g>
<g>
	<g>
		<path fill="#99FF99" d="M77,70.3c1,6.3,0.2,12.4-2.2,18.2c-0.5,1.2,1.4,1.7,1.9,0.5c2.6-6.2,3.3-12.7,2.2-19.3
			C78.7,68.5,76.8,69,77,70.3L77,70.3z"/>
	</g>
</g>
<g>
	<g>
		<path fill="#99FF99" d="M81.8,71.6c0.4,4.7-0.1,9.2-1.5,13.7c-0.4,1.2,1.5,1.8,1.9,0.5c1.5-4.6,2.1-9.4,1.6-14.2
			C83.7,70.3,81.7,70.3,81.8,71.6L81.8,71.6z"/>
	</g>
</g>
<g>
	<g>
		<path fill="#99FF99" d="M44.7,26c-2.6,0.5-5,1.3-7.4,2.3c-1.2,0.5-0.2,2.2,1,1.7c2.2-1,4.6-1.7,6.9-2.1
			C46.5,27.6,45.9,25.7,44.7,26L44.7,26z"/>
	</g>
</g>
<g>
	<g>
		<path fill="#99FF99" d="M39.1,19c2.1,0.1,3.9,1.2,4.9,3.1c0.6,1.1,2.4,0.1,1.7-1c-1.3-2.4-3.8-3.9-6.6-4C37.8,17,37.8,19,39.1,19
			L39.1,19z"/>
	</g>
</g>
<g>
	<g>
		<path fill="#99FF99" d="M26.3,12.9c-3.3,0.9-6,3-7.7,5.9c-0.6,1.1,1.1,2.1,1.7,1c1.4-2.5,3.7-4.3,6.5-5
			C28.1,14.5,27.5,12.6,26.3,12.9L26.3,12.9z"/>
	</g>
</g>
<g>
	<g>
		<path fill="#99FF99" d="M11.4,21.7c0.4,1.6-1.4,2.9-0.8,4.6c0.3,0.8,0.9,1.3,1.2,2.1c0.6,1.7-0.2,3.2-1,4.7
			c-0.4,0.8,0.3,1.6,1.1,1.5c6.4-1.3,2.3-9.3,2.1-13c-0.1-1.3-2.1-1.3-2,0c0.1,2.7,3.9,10.2-0.7,11.1c0.4,0.5,0.8,1,1.1,1.5
			c1.1-2,2.2-4.5,1.2-6.7c-0.2-0.5-0.6-0.8-0.9-1.3c-0.5-1-0.1-1.5,0.3-2.5c0.3-0.9,0.4-1.5,0.2-2.4C13,19.9,11.1,20.4,11.4,21.7
			L11.4,21.7z"/>
	</g>
</g>
<g>
	<g>
		<path fill="#99FF99" d="M74.9,17.1c1.8,0.5,2.6,2,3.6,3.5c0.5,0.7,1.1,1.7,1.9,1.9c2,0.5,2.2-2.3,2.2-3.6c0-1.3-0.6-2.6-0.6-3.9
			s0.5-0.7,1.3-0.4c0.4,0.1,0.7,0.3,1.1,0.3c1.6,0.1,2.6-1.2,2.3-2.7c-0.3-1.3-2.2-0.7-1.9,0.5c0.1,0.4-1.7-0.5-1.9-0.6
			c-0.3-0.1-0.6-0.2-1-0.2c-0.7,0.1-1.3,0.6-1.7,1.2c-0.4,0.8-0.2,1.6-0.1,2.4c0.4,1.7,1,3.8,0.1,5.5c0.3-0.2,0.6-0.3,0.9-0.5
			c-0.6,0.1-2.5-3.1-3-3.6c-0.8-0.8-1.7-1.3-2.8-1.7S73.7,16.7,74.9,17.1L74.9,17.1z"/>
	</g>
</g>
<g>
	<g>
		<path fill="#99FF99" d="M22.9,77.1c0.4,1.3,0.7,2.5,0.7,3.8c0.4-0.3,0.8-0.6,1.3-1c-1.9-0.3-2.7-1.7-4-2.8
			c-0.5-0.4-1.1-0.9-1.8-0.8c-1.4,0.2-1.9,2-1.8,3.2c0.1,1,0.4,1.8,0.8,2.7c0.5,1.1,1.2,1.6,0.4,2.6c-0.9,1-1.3,0.1-2.1-0.7
			c-1.6-1.5-2.9-3.8-5.3-3.8c-1.3,0-1.3,2,0,2c2,0,7.7,9.3,9.9,3.8c0.8-2-0.9-3.8-1.4-5.6c-0.3-0.4-0.3-0.9-0.2-1.3
			c-0.1-0.9,0.1-0.9,0.6-0.1c0.5,0.3,1,1,1.4,1.4c0.9,0.7,1.7,1.1,2.9,1.3c0.6,0.1,1.3-0.2,1.3-1c0-1.5-0.2-2.9-0.7-4.4
			C24.4,75.4,22.5,75.9,22.9,77.1L22.9,77.1z"/>
	</g>
</g>
<g>
	<g>
		<path fill="#99FF99" d="M13.7,38.4c-1.5,3.1-1.6,6.6-2.1,10c-0.4,3.4-1.6,7.4-0.7,10.7c0.4,1.2,2.3,0.7,1.9-0.5
			c-0.8-2.7,0.2-6,0.5-8.7c0.4-3.5,0.5-7.3,2-10.5C16,38.3,14.3,37.3,13.7,38.4L13.7,38.4z"/>
	</g>
</g>
<g>
	<g>
		<path fill="#99FF99" d="M53.2,89.4c7,0.9,13.2,2.4,18.2-3.5c0.8-1-0.6-2.4-1.4-1.4c-2.4,2.8-4.8,4.1-8.7,3.9
			c-2.7-0.1-5.4-0.6-8.1-1C51.9,87.2,52,89.2,53.2,89.4L53.2,89.4z"/>
	</g>
</g>
<g>
	<g>
		<path fill="#99FF99" d="M86.2,36.5c2.1,7.9,2.2,15.7,0.3,23.7c-0.3,1.3,1.6,1.8,1.9,0.5c2-8.3,1.9-16.5-0.3-24.7
			C87.8,34.8,85.9,35.3,86.2,36.5L86.2,36.5z"/>
	</g>
</g>
<g>
	<g>
		<path fill="#99FF99" d="M35.7,14.7c2.5-2.7,12.6-3.2,14.2,0.8c0.5,1.2,2.4,0.7,1.9-0.5c-1.2-3.2-4.3-3.9-7.4-4.1
			c-3.3-0.3-7.7-0.2-10.1,2.4C33.4,14.3,34.8,15.7,35.7,14.7L35.7,14.7z"/>
	</g>
</g>
<g>
	<g>
		<path fill="#99FF99" d="M-182.5,173.8c1.3,0,1.3-2,0-2S-183.8,173.8-182.5,173.8L-182.5,173.8z"/>
	</g>
</g>
</svg>
